<svg width="100" height="100" viewBox="0 0 100 100" fill="none" xmlns="http://www.w3.org/2000/svg">
<rect width="100" height="100" rx="50" fill="white"/>
<path d="M74.3439 38.863C77.6198 38.863 80.2754 36.2074 80.2754 32.9315C80.2754 29.6556 77.6198 27 74.3439 27C71.068 27 68.4124 29.6556 68.4124 32.9315C68.4124 36.2074 71.068 38.863 74.3439 38.863Z" fill="#115295"/>
<path d="M78.9507 67.3116L67.8939 55.6597C67.8555 55.6213 67.8171 55.5829 67.7787 55.5445C65.9359 53.6633 64.4002 51.5518 61.7512 51.3406C58.2959 51.0719 55.2246 54.0088 55.2246 54.0088L58.987 61.8791L61.4441 59.9788L62.3079 60.9577L73.3647 72.6096C74.1133 73.3967 75.1307 73.7998 76.1481 73.7998C77.0887 73.7998 78.0485 73.4543 78.7971 72.744C80.352 71.2851 80.4096 68.8472 78.9507 67.3116Z" fill="#115295"/>
<path d="M68.9115 38.9977C68.9115 38.9977 66.4928 35.504 63.0375 35.1969C60.5997 34.9857 58.872 36.5598 56.9524 38.0187L56.4726 38.3834L46.4715 45.8314C44.7823 47.0983 44.4367 49.517 45.7037 51.2062C46.3179 52.0316 47.201 52.5307 48.1224 52.6843C49.1205 52.8571 50.1955 52.6267 51.0593 51.9741L61.9434 43.8158L63.9973 46.0425L68.9115 38.9977Z" fill="#115295"/>
<path d="M63.2874 52.9148C62.5387 52.051 61.5213 51.5519 60.4464 51.4367C59.2754 51.3024 58.0661 51.6095 57.1063 52.4157L53.2479 55.6022V55.583L48.1994 59.7293L41.6536 52.7036C40.2139 51.1488 37.7761 51.072 36.2212 52.5117C34.6663 53.9514 34.5895 56.3893 36.0292 57.9441L43.3429 65.776C43.554 66.0064 43.7844 66.1983 44.0339 66.3519C44.9553 67.1197 46.2222 67.8684 47.7963 68.0411C49.7351 68.2331 51.6739 67.4077 53.1711 66.5055C53.2095 66.4863 53.2671 66.4479 53.3055 66.4287L53.3823 66.3711C54.8028 65.4881 55.7626 64.5859 55.7626 64.5859L62.8075 58.9231C64.6311 57.4066 64.8614 54.7192 63.2874 52.9148Z" fill="#158ECB"/>
<path d="M87.7429 39.3052C86.3608 37.6927 83.9421 37.5008 82.3297 38.8829L75.1504 45.0064L67.3953 37.2129C66.3779 36.2147 65.3606 35.8691 64.1896 35.8691C63.1146 35.8691 62.0397 36.2531 61.2142 37.0209C59.4482 38.6333 59.3714 41.34 61.0223 43.0484L66.9922 49.0759C66.9922 49.0759 70.5626 53.3566 74.4978 53.395C76.0718 53.4142 77.4347 52.7999 78.4329 52.1472C78.7017 52.0129 78.9512 51.8401 79.1816 51.6481L87.3398 44.6992C88.9139 43.3363 89.1058 40.9177 87.7429 39.3052Z" fill="#158ECB"/>
<path d="M51 41C52.1046 41 53 40.1046 53 39C53 37.8954 52.1046 37 51 37V41ZM31 37C29.8954 37 29 37.8954 29 39C29 40.1046 29.8954 41 31 41V37ZM51 37H31V41H51V37Z" fill="#FF9900"/>
<path d="M41 49C42.1046 49 43 48.1046 43 47C43 45.8954 42.1046 45 41 45V49ZM21 45C19.8954 45 19 45.8954 19 47C19 48.1046 19.8954 49 21 49V45ZM41 45H21V49H41V45Z" fill="#FF9900"/>
<path d="M31 58C32.1046 58 33 57.1046 33 56C33 54.8954 32.1046 54 31 54V58ZM11 54C9.89543 54 9 54.8954 9 56C9 57.1046 9.89543 58 11 58V54ZM31 54H11V58H31V54Z" fill="#FF9900"/>
</svg>
