<?xml version="1.0" standalone="no"?>
<!DOCTYPE svg PUBLIC "-//W3C//DTD SVG 20010904//EN"
 "http://www.w3.org/TR/2001/REC-SVG-20010904/DTD/svg10.dtd">
<svg version="1.0" xmlns="http://www.w3.org/2000/svg"
 width="582.000000pt" height="582.000000pt" viewBox="0 0 582.000000 582.000000"
 preserveAspectRatio="xMidYMid meet">
<metadata>
Created by potrace 1.14, written by Peter Selinger 2001-2017
</metadata>
<g transform="translate(0.000000,582.000000) scale(0.100000,-0.100000)"
fill="#000000" stroke="none">
<path d="M3983 5330 c-203 -56 -360 -200 -430 -394 -55 -153 -45 -319 29 -475
37 -77 45 -89 128 -171 87 -87 204 -148 315 -166 60 -9 166 -11 205 -2 19 4
47 9 62 12 71 12 188 77 266 148 67 61 146 185 167 263 5 17 9 32 10 35 19 69
23 229 6 273 -6 15 -8 27 -6 27 11 0 -47 135 -75 176 -16 25 -30 47 -30 50 0
3 -28 33 -62 66 -83 79 -203 145 -298 165 -67 13 -227 10 -287 -7z"/>
<path d="M2830 4493 c-35 -5 -152 -45 -170 -58 -8 -5 -36 -21 -62 -35 -27 -13
-48 -28 -48 -32 0 -5 -7 -8 -15 -8 -8 0 -15 -4 -15 -10 0 -5 -6 -10 -14 -10
-8 0 -16 -3 -18 -8 -1 -4 -23 -23 -48 -42 -25 -19 -47 -37 -50 -40 -3 -3 -12
-9 -21 -15 -13 -8 -227 -168 -284 -212 -19 -15 -180 -134 -295 -219 -63 -46
-121 -89 -127 -95 -12 -9 -194 -145 -251 -187 -121 -89 -215 -163 -230 -180
-9 -11 -24 -29 -34 -40 -17 -22 -45 -78 -50 -102 -2 -8 -6 -17 -10 -20 -13
-10 -17 -154 -6 -200 34 -140 141 -253 283 -297 56 -18 157 -15 223 6 52 16
129 57 152 81 3 3 66 50 140 105 74 55 137 102 140 105 3 3 21 17 40 30 19 13
37 27 40 30 3 3 111 84 240 180 129 96 240 179 246 185 6 5 21 17 34 25 12 8
65 48 118 88 l96 73 351 -354 c378 -383 465 -458 631 -541 162 -81 203 -91
359 -90 96 1 202 22 233 46 6 6 12 8 12 5 0 -5 37 13 137 67 29 16 130 94 169
131 18 17 46 41 64 55 17 14 42 34 54 45 42 37 128 110 154 130 14 11 42 36
63 55 20 19 54 49 75 65 21 17 42 35 48 40 6 6 40 35 76 65 36 30 70 60 76 65
6 6 35 30 64 55 109 92 131 114 160 156 53 79 81 231 58 309 -5 17 -10 35 -11
40 -8 36 -57 114 -97 154 -44 44 -121 90 -180 107 -79 23 -204 8 -286 -34 -35
-18 -134 -94 -184 -142 -9 -8 -40 -35 -70 -60 -29 -25 -58 -50 -64 -55 -6 -6
-54 -46 -106 -90 -52 -44 -108 -92 -125 -106 -16 -15 -68 -59 -115 -99 -47
-39 -99 -85 -116 -101 -17 -16 -35 -29 -40 -29 -5 0 -192 183 -414 406 -223
224 -424 422 -446 440 -52 43 -243 137 -309 154 -51 12 -180 20 -225 13z"/>
<path d="M2718 2815 c-2 -2 -37 -5 -78 -8 -113 -9 -136 -14 -198 -42 -45 -21
-128 -78 -152 -105 -4 -5 -44 -37 -123 -100 -11 -8 -24 -20 -31 -25 -22 -20
-147 -124 -168 -140 -27 -21 -173 -140 -184 -150 -6 -5 -28 -23 -49 -40 -53
-42 -232 -190 -294 -243 l-26 -23 -80 85 c-44 46 -125 132 -180 192 -55 59
-115 124 -134 143 -18 20 -72 78 -120 130 -223 242 -254 267 -369 296 -334 84
-606 -265 -447 -575 24 -47 28 -52 205 -240 59 -63 122 -131 140 -150 18 -19
82 -89 144 -154 61 -66 140 -151 176 -190 107 -114 203 -210 238 -236 83 -62
220 -135 277 -146 6 -1 26 -6 45 -10 111 -26 318 2 445 61 31 14 58 25 60 25
2 0 44 23 92 52 92 54 200 131 275 195 24 21 64 54 88 73 24 19 53 43 64 52
19 16 323 258 354 283 7 5 21 17 30 26 9 8 31 25 48 37 l31 21 53 -60 c30 -34
74 -83 99 -109 189 -198 351 -369 376 -395 17 -18 89 -94 162 -171 73 -76 158
-166 190 -200 32 -33 123 -130 203 -214 80 -84 159 -166 175 -181 43 -41 132
-86 191 -97 54 -9 157 -8 174 3 6 4 23 9 38 11 15 3 34 11 42 18 8 6 27 18 42
26 36 18 107 95 135 145 56 106 63 226 17 340 -24 60 -57 104 -149 201 -11 11
-94 99 -185 194 -91 96 -204 214 -251 264 -48 50 -106 111 -129 136 -23 25
-83 88 -134 141 -50 53 -149 158 -221 234 -71 76 -209 218 -305 315 -188 190
-260 243 -380 281 -50 15 -212 33 -222 24z"/>
</g>
</svg>
